<?xml version="1.0" encoding="UTF-8" standalone="no"?>
<!-- Generator: Gravit.io -->
<svg xmlns="http://www.w3.org/2000/svg" xmlns:xlink="http://www.w3.org/1999/xlink" style="isolation:isolate" viewBox="0 0 100 100" width="100pt" height="100pt"><g opacity="0.85"><path d=" M 32.727 20.726 L 38.713 20.726 L 59.541 71.812 L 80.287 20.726 L 86.273 20.726 L 62.001 78.946 L 56.999 78.946 L 32.727 20.726 L 32.727 20.726 Z " fill="rgb(66,66,66)"/></g><g opacity="0.8"><path d=" M 14.318 49.426 L 14.318 49.426 L 14.318 49.426 Q 14.318 44.178 16.163 38.971 L 16.163 38.971 L 16.163 38.971 Q 18.008 33.764 21.534 29.664 L 21.534 29.664 L 21.534 29.664 Q 25.06 25.564 30.226 22.981 L 30.226 22.981 L 30.226 22.981 Q 35.392 20.398 41.952 20.398 L 41.952 20.398 L 41.952 20.398 Q 49.742 20.398 55.277 23.924 L 55.277 23.924 L 55.277 23.924 Q 60.812 27.45 63.436 33.108 L 63.436 33.108 L 58.926 35.896 L 58.926 35.896 Q 57.532 33.026 55.523 31.058 L 55.523 31.058 L 55.523 31.058 Q 53.514 29.09 51.218 27.86 L 51.218 27.86 L 51.218 27.86 Q 48.922 26.63 46.462 26.097 L 46.462 26.097 L 46.462 26.097 Q 44.002 25.564 41.624 25.564 L 41.624 25.564 L 41.624 25.564 Q 36.376 25.564 32.358 27.696 L 32.358 27.696 L 32.358 27.696 Q 28.34 29.828 25.593 33.272 L 25.593 33.272 L 25.593 33.272 Q 22.846 36.716 21.452 41.021 L 21.452 41.021 L 21.452 41.021 Q 20.058 45.326 20.058 49.754 L 20.058 49.754 L 20.058 49.754 Q 20.058 54.592 21.739 59.02 L 21.739 59.02 L 21.739 59.02 Q 23.42 63.448 26.331 66.851 L 26.331 66.851 L 26.331 66.851 Q 29.242 70.254 33.219 72.263 L 33.219 72.263 L 33.219 72.263 Q 37.196 74.272 41.87 74.272 L 41.87 74.272 L 41.87 74.272 Q 44.33 74.272 46.913 73.657 L 46.913 73.657 L 46.913 73.657 Q 49.496 73.042 51.915 71.689 L 51.915 71.689 L 51.915 71.689 Q 54.334 70.336 56.384 68.327 L 56.384 68.327 L 56.384 68.327 Q 58.434 66.318 59.828 63.448 L 59.828 63.448 L 64.584 65.908 L 64.584 65.908 Q 63.19 69.188 60.648 71.689 L 60.648 71.689 L 60.648 71.689 Q 58.106 74.19 54.99 75.912 L 54.99 75.912 L 54.99 75.912 Q 51.874 77.634 48.389 78.536 L 48.389 78.536 L 48.389 78.536 Q 44.904 79.438 41.542 79.438 L 41.542 79.438 L 41.542 79.438 Q 35.556 79.438 30.554 76.814 L 30.554 76.814 L 30.554 76.814 Q 25.552 74.19 21.944 69.967 L 21.944 69.967 L 21.944 69.967 Q 18.336 65.744 16.327 60.373 L 16.327 60.373 L 16.327 60.373 Q 14.318 55.002 14.318 49.426 Z " fill="rgb(0,0,0)"/><clipPath id="_clipPath_WbKvYiHQ0I5QW8Xj8rjMNNiWw5BXWATs"><path d=" M 14.318 49.426 L 14.318 49.426 L 14.318 49.426 Q 14.318 44.178 16.163 38.971 L 16.163 38.971 L 16.163 38.971 Q 18.008 33.764 21.534 29.664 L 21.534 29.664 L 21.534 29.664 Q 25.06 25.564 30.226 22.981 L 30.226 22.981 L 30.226 22.981 Q 35.392 20.398 41.952 20.398 L 41.952 20.398 L 41.952 20.398 Q 49.742 20.398 55.277 23.924 L 55.277 23.924 L 55.277 23.924 Q 60.812 27.45 63.436 33.108 L 63.436 33.108 L 58.926 35.896 L 58.926 35.896 Q 57.532 33.026 55.523 31.058 L 55.523 31.058 L 55.523 31.058 Q 53.514 29.09 51.218 27.86 L 51.218 27.86 L 51.218 27.86 Q 48.922 26.63 46.462 26.097 L 46.462 26.097 L 46.462 26.097 Q 44.002 25.564 41.624 25.564 L 41.624 25.564 L 41.624 25.564 Q 36.376 25.564 32.358 27.696 L 32.358 27.696 L 32.358 27.696 Q 28.34 29.828 25.593 33.272 L 25.593 33.272 L 25.593 33.272 Q 22.846 36.716 21.452 41.021 L 21.452 41.021 L 21.452 41.021 Q 20.058 45.326 20.058 49.754 L 20.058 49.754 L 20.058 49.754 Q 20.058 54.592 21.739 59.02 L 21.739 59.02 L 21.739 59.02 Q 23.42 63.448 26.331 66.851 L 26.331 66.851 L 26.331 66.851 Q 29.242 70.254 33.219 72.263 L 33.219 72.263 L 33.219 72.263 Q 37.196 74.272 41.87 74.272 L 41.87 74.272 L 41.87 74.272 Q 44.33 74.272 46.913 73.657 L 46.913 73.657 L 46.913 73.657 Q 49.496 73.042 51.915 71.689 L 51.915 71.689 L 51.915 71.689 Q 54.334 70.336 56.384 68.327 L 56.384 68.327 L 56.384 68.327 Q 58.434 66.318 59.828 63.448 L 59.828 63.448 L 64.584 65.908 L 64.584 65.908 Q 63.19 69.188 60.648 71.689 L 60.648 71.689 L 60.648 71.689 Q 58.106 74.19 54.99 75.912 L 54.99 75.912 L 54.99 75.912 Q 51.874 77.634 48.389 78.536 L 48.389 78.536 L 48.389 78.536 Q 44.904 79.438 41.542 79.438 L 41.542 79.438 L 41.542 79.438 Q 35.556 79.438 30.554 76.814 L 30.554 76.814 L 30.554 76.814 Q 25.552 74.19 21.944 69.967 L 21.944 69.967 L 21.944 69.967 Q 18.336 65.744 16.327 60.373 L 16.327 60.373 L 16.327 60.373 Q 14.318 55.002 14.318 49.426 Z " fill="rgb(0,0,0)"/></clipPath><g clip-path="url(#_clipPath_WbKvYiHQ0I5QW8Xj8rjMNNiWw5BXWATs)"><g opacity="0.85"><path d=" M 32.727 20.592 L 38.713 20.592 L 59.541 71.678 L 80.287 20.592 L 86.273 20.592 L 62.001 78.812 L 56.999 78.812 L 32.727 20.592 L 32.727 20.592 Z " fill="rgb(89,89,89)"/></g></g></g></svg>